<?xml version="1.0" standalone="no"?>
<!DOCTYPE svg PUBLIC "-//W3C//DTD SVG 20010904//EN"
 "http://www.w3.org/TR/2001/REC-SVG-20010904/DTD/svg10.dtd">
<svg version="1.0" xmlns="http://www.w3.org/2000/svg"
 width="1020.000000pt" height="270.000000pt" viewBox="0 0 1020.000000 270.000000"
 preserveAspectRatio="xMidYMid meet">

<g transform="translate(0.000000,270.000000) scale(0.100000,-0.100000)"
fill="red" stroke="#ffff">
<path d="M1055 2333 c-64 -8 -233 -46 -290 -65 -178 -60 -339 -178 -392 -286
-23 -46 -28 -71 -28 -127 0 -89 28 -149 104 -226 228 -227 747 -321 1188 -214
240 58 431 178 504 316 35 66 34 185 -3 255 -43 83 -142 166 -271 229 -187 91
-364 126 -622 123 -88 0 -173 -3 -190 -5z m265 -33 c28 -30 65 -114 77 -172 3
-16 8 -28 12 -28 4 0 51 11 105 25 130 33 189 33 221 0 29 -28 31 -45 11 -83
-14 -28 -96 -108 -151 -150 l-30 -23 25 -17 c14 -9 49 -39 78 -67 83 -76 101
-126 62 -165 -27 -27 -128 -27 -230 0 -91 24 -100 24 -100 5 0 -37 -46 -148
-75 -182 -71 -82 -156 -21 -196 144 -7 26 -13 49 -15 51 -1 2 -51 -9 -110 -23
-117 -30 -181 -30 -214 0 -11 10 -20 28 -20 40 0 35 56 110 118 156 31 24 59
45 62 47 3 3 -8 14 -25 26 -52 38 -137 120 -151 148 -50 96 53 135 236 88 43
-11 85 -22 93 -25 10 -4 17 9 25 47 17 72 55 152 83 172 37 25 77 20 109 -14z"/>
<path d="M1222 2248 c-23 -38 -55 -141 -50 -164 2 -8 21 -23 44 -33 40 -18 42
-18 88 1 53 24 54 29 26 119 -34 113 -71 138 -108 77z"/>
<path d="M1545 2080 c-128 -35 -130 -36 -129 -53 4 -74 3 -73 53 -100 l49 -27
58 43 c69 51 137 123 131 140 -6 19 -87 18 -162 -3z"/>
<path d="M815 2080 c-3 -5 -1 -18 4 -28 15 -28 112 -114 152 -136 l36 -19 45
27 c40 23 46 31 51 69 3 23 4 43 2 46 -2 2 -45 14 -96 27 -94 25 -183 31 -194
14z"/>
<path d="M1156 2004 c-3 -8 1 -14 9 -14 20 0 28 17 11 23 -8 3 -17 -1 -20 -9z"/>
<path d="M1337 2014 c-9 -10 2 -24 18 -24 9 0 12 6 9 15 -6 16 -17 19 -27 9z"/>
<path d="M1195 1947 c-39 -22 -40 -25 -43 -79 l-3 -57 52 -27 52 -26 59 28 58
28 0 56 0 56 -45 22 c-57 28 -80 27 -130 -1z m118 -44 c23 -22 22 -52 -5 -80
-28 -30 -69 -30 -105 1 -24 21 -26 27 -18 52 19 52 84 66 128 27z"/>
<path d="M1072 1878 c-8 -8 -9 -15 -1 -25 17 -20 29 -15 29 12 0 27 -9 32 -28
13z"/>
<path d="M1420 1870 c0 -22 8 -25 30 -10 13 9 13 11 0 20 -22 15 -30 12 -30
-10z"/>
<path d="M1468 1812 c-41 -23 -47 -31 -51 -67 -2 -22 -1 -43 2 -47 13 -15 166
-48 223 -48 48 0 58 3 58 17 0 20 -110 128 -156 155 -28 16 -31 16 -76 -10z"/>
<path d="M950 1796 c-50 -36 -130 -120 -130 -135 0 -16 39 -23 93 -16 55 8
177 42 189 54 4 3 5 23 1 44 -4 30 -13 41 -49 62 -23 14 -46 25 -51 25 -4 0
-28 -15 -53 -34z"/>
<path d="M1160 1735 c0 -16 16 -20 24 -6 3 5 -1 11 -9 15 -9 3 -15 0 -15 -9z"/>
<path d="M1335 1741 c-3 -5 -1 -12 5 -16 12 -7 30 2 30 16 0 12 -27 12 -35 0z"/>
<path d="M1206 1683 c-38 -16 -38 -16 -32 -62 3 -25 18 -71 34 -101 22 -45 32
-55 52 -55 20 0 30 10 52 55 16 30 31 76 34 101 l6 45 -44 17 c-52 20 -53 20
-102 0z"/>
</g>
</svg>
